<?xml version="1.0" encoding="UTF-8"?>
<svg width="200px" height="200px" viewBox="0 0 200 200" version="1.1" xmlns="http://www.w3.org/2000/svg" xmlns:xlink="http://www.w3.org/1999/xlink">
    <!-- Generator: Sketch 55.2 (78181) - https://sketchapp.com -->
    <title>张芮-10</title>
    <desc>Created with Sketch.</desc>
    <defs>
        <linearGradient x1="-47.1440972%" y1="63.4194895%" x2="100%" y2="43.8078639%" id="linearGradient-1">
            <stop stop-color="#FFFFFF" offset="0%"></stop>
            <stop stop-color="#7F9DFF" offset="100%"></stop>
        </linearGradient>
        <path d="M45.3442045,88.7816364 C21.2474091,88.7816364 1.71465909,69.2470909 1.71465909,45.1520909 C1.71465909,21.0552955 21.2474091,1.52254545 45.3442045,1.52254545 C69.441,1.52254545 88.97375,21.0552955 88.97375,45.1520909 C88.97375,69.2470909 69.441,88.7816364 45.3442045,88.7816364 Z" id="path-2"></path>
        <path d="M82.2264318,5.66286364 L12.3060455,55.7075682 C12.06725,55.8781364 11.8571818,56.0720455 11.6255682,56.248 L11.6255682,56.248 C11.3257273,56.4742273 11.0348636,56.7112273 10.744,56.9500227 L10.744,56.9500227 C10.2825682,57.3288636 9.83190909,57.7166818 9.39920455,58.1188636 L9.39920455,58.1188636 C9.10654545,58.3881818 8.82465909,58.6700682 8.54277273,58.95375 L8.54277273,58.95375 C8.13520455,59.3667045 7.73661364,59.78325 7.35777273,60.2159545 L7.35777273,60.2159545 C7.08127273,60.5301591 6.81375,60.8533409 6.55161364,61.1819091 L6.55161364,61.1819091 C6.2015,61.6128182 5.86395455,62.0491136 5.54436364,62.4979773 L5.54436364,62.4979773 C5.41868182,62.6703409 5.27684091,62.8265455 5.15654545,63.0042955 L5.15654545,63.0042955 C5.00752273,63.2179545 4.89081818,63.4459773 4.74897727,63.6650227 L4.74897727,63.6650227 C4.49222727,64.0618182 4.24445455,64.464 4.00745455,64.8697727 L4.00745455,64.8697727 C3.72377273,65.3599318 3.45265909,65.8536818 3.1995,66.3528182 L3.1995,66.3528182 C3.03970455,66.6688182 2.88529545,66.9866136 2.73806818,67.3097955 L2.73806818,67.3097955 C2.46336364,67.9005 2.20840909,68.4965909 1.97679545,69.0980682 L1.97679545,69.0980682 C1.87804545,69.3566136 1.78647727,69.6169545 1.69311364,69.8772955 L1.69311364,69.8772955 C1.46329545,70.5254545 1.25502273,71.1754091 1.07368182,71.8325455 L1.07368182,71.8325455 C1.00006818,72.0982727 0.935431818,72.3657955 0.870795455,72.6333182 L0.870795455,72.6333182 C0.714590909,73.2671136 0.574545455,73.8991136 0.461431818,74.5365 L0.461431818,74.5365 C0.396795455,74.892 0.346522727,75.2492955 0.298045455,75.6083864 L0.298045455,75.6083864 C0.222636364,76.1416364 0.152613636,76.6730909 0.109522727,77.2063409 L0.109522727,77.2063409 C0.0646363636,77.7252273 0.0412954545,78.2441136 0.0251363636,78.763 L0.0251363636,78.763 C0.0125681818,79.1292727 -0.00179545455,79.4919545 -0.000152851854,79.8564318 L-0.000152851854,79.8564318 C0.00179545455,80.5638409 0.0359090909,81.2694545 0.0879772727,81.9786591 L0.0879772727,81.9786591 C0.100545455,82.1546136 0.109522727,82.3287727 0.125681818,82.5029318 L0.125681818,82.5029318 C0.202886364,83.3683409 0.324977273,84.2265682 0.479386364,85.0865909 L0.479386364,85.0865909 C0.482977273,85.1135227 0.486568182,85.1386591 0.49375,85.1637955 L0.49375,85.1637955 C0.991090909,87.8857045 1.88163636,90.55375 3.16718182,93.0979091 L3.16718182,93.0979091 C3.20129545,93.1661364 3.23540909,93.2325682 3.26952273,93.3007955 L3.26952273,93.3007955 C3.64297727,94.0261591 4.04875,94.7389545 4.48863636,95.4391818 L4.48863636,95.4391818 C4.59995455,95.6187273 4.71486364,95.7964773 4.83156818,95.9742273 L4.83156818,95.9742273 C5.04881818,96.3027955 5.23734091,96.6439318 5.46895455,96.9671136 L5.46895455,96.9671136 C5.65927273,97.2328409 5.87293182,97.46625 6.07043182,97.723 L6.07043182,97.723 C6.25895455,97.9725682 6.45645455,98.2131591 6.65215909,98.4555455 L6.65215909,98.4555455 C7.06690909,98.9600682 7.48884091,99.4502273 7.92693182,99.9206364 L7.92693182,99.9206364 C8.16931818,100.182773 8.42247727,100.434136 8.67563636,100.689091 L8.67563636,100.689091 C9.11013636,101.12 9.55181818,101.540136 10.0096591,101.940523 L10.0096591,101.940523 C10.3059091,102.204455 10.6147273,102.455818 10.9271364,102.710773 L10.9271364,102.710773 C11.3670227,103.066273 11.8122955,103.409205 12.2719318,103.735977 L12.2719318,103.735977 C12.4442955,103.861659 12.6005,104.0035 12.7764545,104.125591 L12.7764545,104.125591 L83.64125,152.827295 C88.6882727,156.296114 94.4588636,157.973068 100.184568,158 L100.184568,158 L100.452091,158 C109.840523,157.958705 119.07275,153.486227 124.762545,145.207386 L124.762545,145.207386 C133.975023,131.802523 130.545705,113.296773 117.140841,104.084295 L117.140841,104.084295 L81.0198864,79.2603409 L116.648886,53.7577045 C129.877795,44.2920682 132.951614,25.7252727 123.485977,12.4981591 L123.485977,12.4981591 C117.731545,4.45811364 108.612432,0.168771374 99.3748182,0.168771374 L99.3748182,0.168771374 C93.4175,0.166977273 87.4135,1.95165909 82.2264318,5.66286364" id="path-4"></path>
        <linearGradient x1="16.1128431%" y1="104.499156%" x2="88.3104313%" y2="-25.0537353%" id="linearGradient-6">
            <stop stop-color="#3AC9FF" offset="0%"></stop>
            <stop stop-color="#271BFD" offset="100%"></stop>
        </linearGradient>
    </defs>
    <g id="张芮-10" stroke="none" stroke-width="1" fill="none" fill-rule="evenodd">
        <g id="编组-2" transform="translate(21.000000, 21.000000)">
            <g id="编组" transform="translate(68.227273, 30.690961)">
                <g transform="translate(0.000000, 1.627220)">
                    <mask id="mask-3" fill="white">
                        <use xlink:href="#path-2"></use>
                    </mask>
                    <use id="形状结合" fill="url(#linearGradient-1)" xlink:href="#path-2"></use>
                </g>
            </g>
            <g id="编组">
                <mask id="mask-5" fill="white">
                    <use xlink:href="#path-4"></use>
                </mask>
                <g id="Clip-2"></g>
                <path d="M82.2264318,5.66286364 L12.3060455,55.7075682 C12.06725,55.8781364 11.8571818,56.0720455 11.6255682,56.248 L11.6255682,56.248 C11.3257273,56.4742273 11.0348636,56.7112273 10.744,56.9500227 L10.744,56.9500227 C10.2825682,57.3288636 9.83190909,57.7166818 9.39920455,58.1188636 L9.39920455,58.1188636 C9.10654545,58.3881818 8.82465909,58.6700682 8.54277273,58.95375 L8.54277273,58.95375 C8.13520455,59.3667045 7.73661364,59.78325 7.35777273,60.2159545 L7.35777273,60.2159545 C7.08127273,60.5301591 6.81375,60.8533409 6.55161364,61.1819091 L6.55161364,61.1819091 C6.2015,61.6128182 5.86395455,62.0491136 5.54436364,62.4979773 L5.54436364,62.4979773 C5.41868182,62.6703409 5.27684091,62.8265455 5.15654545,63.0042955 L5.15654545,63.0042955 C5.00752273,63.2179545 4.89081818,63.4459773 4.74897727,63.6650227 L4.74897727,63.6650227 C4.49222727,64.0618182 4.24445455,64.464 4.00745455,64.8697727 L4.00745455,64.8697727 C3.72377273,65.3599318 3.45265909,65.8536818 3.1995,66.3528182 L3.1995,66.3528182 C3.03970455,66.6688182 2.88529545,66.9866136 2.73806818,67.3097955 L2.73806818,67.3097955 C2.46336364,67.9005 2.20840909,68.4965909 1.97679545,69.0980682 L1.97679545,69.0980682 C1.87804545,69.3566136 1.78647727,69.6169545 1.69311364,69.8772955 L1.69311364,69.8772955 C1.46329545,70.5254545 1.25502273,71.1754091 1.07368182,71.8325455 L1.07368182,71.8325455 C1.00006818,72.0982727 0.935431818,72.3657955 0.870795455,72.6333182 L0.870795455,72.6333182 C0.714590909,73.2671136 0.574545455,73.8991136 0.461431818,74.5365 L0.461431818,74.5365 C0.396795455,74.892 0.346522727,75.2492955 0.298045455,75.6083864 L0.298045455,75.6083864 C0.222636364,76.1416364 0.152613636,76.6730909 0.109522727,77.2063409 L0.109522727,77.2063409 C0.0646363636,77.7252273 0.0412954545,78.2441136 0.0251363636,78.763 L0.0251363636,78.763 C0.0125681818,79.1292727 -0.00179545455,79.4919545 -0.000152851854,79.8564318 L-0.000152851854,79.8564318 C0.00179545455,80.5638409 0.0359090909,81.2694545 0.0879772727,81.9786591 L0.0879772727,81.9786591 C0.100545455,82.1546136 0.109522727,82.3287727 0.125681818,82.5029318 L0.125681818,82.5029318 C0.202886364,83.3683409 0.324977273,84.2265682 0.479386364,85.0865909 L0.479386364,85.0865909 C0.482977273,85.1135227 0.486568182,85.1386591 0.49375,85.1637955 L0.49375,85.1637955 C0.991090909,87.8857045 1.88163636,90.55375 3.16718182,93.0979091 L3.16718182,93.0979091 C3.20129545,93.1661364 3.23540909,93.2325682 3.26952273,93.3007955 L3.26952273,93.3007955 C3.64297727,94.0261591 4.04875,94.7389545 4.48863636,95.4391818 L4.48863636,95.4391818 C4.59995455,95.6187273 4.71486364,95.7964773 4.83156818,95.9742273 L4.83156818,95.9742273 C5.04881818,96.3027955 5.23734091,96.6439318 5.46895455,96.9671136 L5.46895455,96.9671136 C5.65927273,97.2328409 5.87293182,97.46625 6.07043182,97.723 L6.07043182,97.723 C6.25895455,97.9725682 6.45645455,98.2131591 6.65215909,98.4555455 L6.65215909,98.4555455 C7.06690909,98.9600682 7.48884091,99.4502273 7.92693182,99.9206364 L7.92693182,99.9206364 C8.16931818,100.182773 8.42247727,100.434136 8.67563636,100.689091 L8.67563636,100.689091 C9.11013636,101.12 9.55181818,101.540136 10.0096591,101.940523 L10.0096591,101.940523 C10.3059091,102.204455 10.6147273,102.455818 10.9271364,102.710773 L10.9271364,102.710773 C11.3670227,103.066273 11.8122955,103.409205 12.2719318,103.735977 L12.2719318,103.735977 C12.4442955,103.861659 12.6005,104.0035 12.7764545,104.125591 L12.7764545,104.125591 L83.64125,152.827295 C88.6882727,156.296114 94.4588636,157.973068 100.184568,158 L100.184568,158 L100.452091,158 C109.840523,157.958705 119.07275,153.486227 124.762545,145.207386 L124.762545,145.207386 C133.975023,131.802523 130.545705,113.296773 117.140841,104.084295 L117.140841,104.084295 L81.0198864,79.2603409 L116.648886,53.7577045 C129.877795,44.2920682 132.951614,25.7252727 123.485977,12.4981591 L123.485977,12.4981591 C117.731545,4.45811364 108.612432,0.168771374 99.3748182,0.168771374 L99.3748182,0.168771374 C93.4175,0.166977273 87.4135,1.95165909 82.2264318,5.66286364" id="Fill-1" fill="url(#linearGradient-6)" mask="url(#mask-5)"></path>
            </g>
        </g>
    </g>
</svg>